<svg width="80" height="120" viewBox="0 0 149 120" fill="none" xmlns="http://www.w3.org/2000/svg">
<path d="M74.5935 66.373L23.7555 117.357C20.2417 120.881 14.5598 120.881 11.0834 117.357L2.63535 108.885C-0.878449 105.361 -0.878449 99.6626 2.63535 96.1762L38.6705 60.0375L2.63535 23.8988C-0.878449 20.3749 -0.878449 14.6767 2.63535 11.1903L11.046 2.64292C14.5598 -0.880975 20.2417 -0.880975 23.7181 2.64292L74.5561 53.627C78.1072 57.1509 78.1073 62.8491 74.5935 66.373ZM146.365 53.627L95.5267 2.64292C92.0129 -0.880975 86.331 -0.880975 82.8546 2.64292L74.4065 11.1153C70.8927 14.6392 70.8927 20.3374 74.4065 23.8238L110.442 59.9625L74.4065 96.1012C70.8927 99.6251 70.8927 105.323 74.4065 108.81L82.8546 117.282C86.3684 120.806 92.0503 120.806 95.5267 117.282L146.365 66.298C149.878 62.8491 149.878 57.1509 146.365 53.627Z" fill="white" style="mix-blend-mode:color-burn"/>
</svg>
